<svg width="253" height="87" viewBox="0 0 253 87" fill="none" xmlns="http://www.w3.org/2000/svg">
<path d="M97.115 47.1919V33.1801H101.546L104.443 40.0001L107.454 33.1801H111.731V47.1919H108.503V38.2386L105.904 44.0162H102.877L100.327 38.1981V47.1919H97.115Z" fill="#006599"/>
<path d="M119.043 47.3455C118.029 47.3775 117.027 47.1287 116.146 46.6263C115.372 46.1696 114.741 45.5065 114.322 44.7112C113.905 43.9161 113.687 43.0315 113.687 42.1334C113.687 41.2354 113.905 40.3508 114.322 39.5557C114.744 38.7622 115.378 38.102 116.154 37.6487C117.049 37.1753 118.047 36.9278 119.059 36.9278C120.072 36.9278 121.069 37.1753 121.965 37.6487C122.738 38.1053 123.37 38.7684 123.789 39.5638C124.205 40.3591 124.423 41.2436 124.423 42.1415C124.423 43.0395 124.205 43.924 123.789 44.7193C123.37 45.5146 122.738 46.1777 121.965 46.6344C121.075 47.1363 120.064 47.3824 119.043 47.3455ZM119.043 44.7273C119.346 44.739 119.647 44.675 119.919 44.541C120.191 44.4069 120.425 44.2071 120.601 43.9597C120.968 43.4219 121.165 42.7853 121.165 42.1334C121.165 41.4816 120.968 40.845 120.601 40.3072C120.418 40.0676 120.182 39.8735 119.912 39.7398C119.642 39.6062 119.344 39.5367 119.043 39.5367C118.742 39.5367 118.444 39.6062 118.174 39.7398C117.904 39.8735 117.668 40.0676 117.485 40.3072C117.118 40.845 116.921 41.4816 116.921 42.1334C116.921 42.7853 117.118 43.4219 117.485 43.9597C117.656 44.2146 117.889 44.4223 118.161 44.5635C118.433 44.7048 118.736 44.775 119.043 44.7677V44.7273Z" fill="#006599"/>
<path d="M126.387 47.1919V32.8003H129.616V38.5779H129.712C129.867 38.3386 130.039 38.1117 130.229 37.8992C130.479 37.6244 130.78 37.4019 131.117 37.2446C131.655 37.0242 132.237 36.9342 132.816 36.982C133.395 37.0297 133.955 37.2139 134.45 37.5194C134.925 37.8728 135.289 38.3551 135.499 38.9092C135.711 39.4611 135.82 40.0472 135.822 40.6385V47.1919H132.594V41.2446C132.6 40.8364 132.482 40.4359 132.255 40.0971C132.109 39.9336 131.929 39.8038 131.729 39.7166C131.528 39.6295 131.31 39.5872 131.091 39.5925C130.873 39.5979 130.658 39.6509 130.461 39.7478C130.265 39.8447 130.092 39.9832 129.954 40.1537C129.735 40.5225 129.621 40.9445 129.624 41.3739V47.1919H126.387Z" fill="#006599"/>
<path d="M141.956 36.9699C142.512 36.9455 143.066 37.0564 143.57 37.2931C143.912 37.4597 144.226 37.6807 144.498 37.9476C144.625 38.0721 144.741 38.2073 144.845 38.3517H144.998V37.1557H148.226V47.1919H144.998V46.0041H144.845C144.52 46.4649 144.08 46.8327 143.57 47.0707C143.064 47.3014 142.511 47.4093 141.956 47.3859C141.291 47.4025 140.632 47.2496 140.043 46.9414C139.503 46.6446 139.037 46.2304 138.679 45.7293C138.312 45.2245 138.039 44.658 137.872 44.0566C137.518 42.8182 137.518 41.5053 137.872 40.2668C138.039 39.6655 138.312 39.099 138.679 38.5941C139.039 38.0991 139.505 37.6906 140.043 37.3982C140.634 37.0956 141.292 36.9483 141.956 36.9699ZM142.981 39.5638C142.557 39.5504 142.142 39.6878 141.81 39.9516C141.493 40.2119 141.25 40.5522 141.108 40.9375C140.806 41.7367 140.806 42.6191 141.108 43.4183C141.25 43.8035 141.493 44.1438 141.81 44.4041C142.142 44.6685 142.557 44.806 142.981 44.792C143.402 44.807 143.815 44.6693 144.143 44.4041C144.456 44.1402 144.698 43.801 144.845 43.4183C145.16 42.6214 145.16 41.7343 144.845 40.9375C144.698 40.5547 144.456 40.2155 144.143 39.9516C143.812 39.6846 143.397 39.5468 142.972 39.5638H142.981Z" fill="#006599"/>
<path d="M150.333 47.1919V37.1557H153.561V38.4971H153.674C153.922 38.0722 154.261 37.7078 154.667 37.4305C155.034 37.162 155.457 36.9818 155.905 36.9039C156.353 36.8261 156.812 36.8527 157.248 36.9817C157.684 37.1107 158.084 37.3386 158.417 37.6477C158.751 37.9568 159.008 38.3387 159.17 38.7638C159.348 38.4687 159.562 38.1972 159.808 37.9557C160.099 37.6626 160.441 37.4245 160.817 37.2527C161.269 37.0538 161.759 36.9572 162.253 36.9699C162.852 36.9415 163.445 37.1026 163.948 37.4305C164.375 37.7283 164.711 38.1398 164.917 38.6183C165.124 39.0894 165.231 39.5985 165.231 40.1133V47.2H162.003V41.0587C162.019 40.6843 161.905 40.3158 161.68 40.0163C161.564 39.8737 161.416 39.761 161.247 39.6879C161.079 39.6148 160.895 39.5833 160.712 39.5961C160.517 39.5806 160.321 39.6164 160.144 39.7C159.967 39.7837 159.815 39.9122 159.703 40.0729C159.492 40.394 159.382 40.7713 159.388 41.1557V47.2H156.16V41.0587C156.17 40.6888 156.06 40.3256 155.845 40.0244C155.73 39.878 155.581 39.7624 155.41 39.6877C155.24 39.613 155.054 39.5815 154.869 39.5961C154.673 39.5806 154.476 39.6173 154.299 39.7025C154.122 39.7876 153.97 39.9182 153.86 40.0809C153.653 40.3979 153.543 40.7688 153.545 41.1476V47.1919H150.333Z" fill="#006599"/>
<path d="M172.277 47.3455C171.48 47.3633 170.687 47.2118 169.953 46.901C169.335 46.6233 168.784 46.2154 168.338 45.7051C167.908 45.2173 167.579 44.6487 167.37 44.0324C166.96 42.8025 166.96 41.4724 167.37 40.2426C167.569 39.6305 167.884 39.0627 168.298 38.5699C168.738 38.0534 169.29 37.6444 169.912 37.3739C170.644 37.0612 171.434 36.9096 172.229 36.9295C173.11 36.9101 173.981 37.1218 174.755 37.5436C175.488 37.9625 176.08 38.5896 176.458 39.3456C176.89 40.2384 177.1 41.2225 177.071 42.2142V42.9738H170.332C170.362 43.4757 170.558 43.9534 170.889 44.3314C171.069 44.5273 171.291 44.6804 171.538 44.7796C171.785 44.8789 172.052 44.9217 172.317 44.9051C172.69 44.9272 173.061 44.8372 173.383 44.6465C173.661 44.4366 173.881 44.1582 174.02 43.8385H176.926C176.817 44.2596 176.666 44.6685 176.474 45.0586C176.26 45.4457 175.988 45.7974 175.667 46.101C175.278 46.4803 174.817 46.7771 174.311 46.9738C173.663 47.2261 172.972 47.3523 172.277 47.3455ZM170.275 41.091H173.923C173.929 40.8424 173.884 40.5953 173.791 40.3647C173.698 40.1341 173.559 39.9248 173.383 39.7496C173.036 39.4432 172.586 39.2812 172.124 39.2971C171.662 39.2853 171.213 39.4467 170.865 39.7496C170.678 39.9283 170.53 40.1428 170.429 40.3803C170.328 40.6177 170.276 40.8732 170.275 41.1314V41.091Z" fill="#006599"/>
<path d="M183.1 47.3455C182.435 47.3621 181.777 47.2091 181.187 46.901C180.655 46.6148 180.192 46.2148 179.831 45.7293C179.464 45.2245 179.191 44.658 179.024 44.0566C178.67 42.8182 178.67 41.5053 179.024 40.2668C179.191 39.6655 179.464 39.099 179.831 38.5941C180.191 38.0991 180.657 37.6906 181.195 37.3982C181.785 37.09 182.443 36.9371 183.108 36.9537C183.664 36.9293 184.218 37.0402 184.722 37.277C185.065 37.4435 185.378 37.6646 185.65 37.9315C185.777 38.0559 185.893 38.1911 185.997 38.3355H186.15V32.8003H189.379V47.1919H186.15V46.0041H185.997C185.672 46.4649 185.233 46.8327 184.722 47.0707C184.21 47.2888 183.654 47.3829 183.1 47.3455ZM184.125 44.7516C184.546 44.7666 184.959 44.6288 185.287 44.3637C185.6 44.0998 185.842 43.7606 185.989 43.3779C186.304 42.581 186.304 41.6939 185.989 40.8971C185.842 40.5143 185.6 40.1751 185.287 39.9113C184.959 39.6461 184.546 39.5084 184.125 39.5234C183.701 39.51 183.286 39.6474 182.954 39.9113C182.637 40.1715 182.395 40.5118 182.252 40.8971C181.95 41.6963 181.95 42.5787 182.252 43.3779C182.395 43.7631 182.637 44.1034 182.954 44.3637C183.28 44.6427 183.696 44.7947 184.125 44.792V44.7516Z" fill="#006599"/>
<path d="M196.134 47.1919V33.1801H199.41V38.6183H204.447V33.1801H207.723V47.1919H204.447V41.4223H199.41V47.2L196.134 47.1919Z" fill="#006599"/>
<path d="M214.051 36.9699C214.607 36.9455 215.161 37.0564 215.665 37.2931C216.007 37.4597 216.321 37.6807 216.593 37.9476C216.72 38.0721 216.836 38.2073 216.94 38.3517H217.093V37.1557H220.322V47.1919H217.093V46.0041H216.94C216.615 46.4649 216.175 46.8327 215.665 47.0707C215.159 47.3014 214.606 47.4093 214.051 47.3859C213.386 47.4025 212.728 47.2496 212.138 46.9414C211.593 46.6466 211.121 46.2322 210.758 45.7293C210.391 45.2245 210.118 44.658 209.951 44.0566C209.597 42.8182 209.597 41.5053 209.951 40.2668C210.118 39.6655 210.391 39.099 210.758 38.5941C211.118 38.0991 211.584 37.6906 212.122 37.3982C212.718 37.093 213.382 36.9455 214.051 36.9699ZM215.076 39.5638C214.652 39.5504 214.237 39.6878 213.905 39.9516C213.588 40.2119 213.346 40.5522 213.203 40.9375C212.901 41.7367 212.901 42.6191 213.203 43.4183C213.346 43.8035 213.588 44.1438 213.905 44.4041C214.237 44.6685 214.652 44.806 215.076 44.792C215.497 44.807 215.91 44.6693 216.238 44.4041C216.551 44.1402 216.793 43.801 216.94 43.4183C217.255 42.6214 217.255 41.7343 216.94 40.9375C216.793 40.5547 216.551 40.2155 216.238 39.9516C215.903 39.6809 215.481 39.5428 215.051 39.5638H215.076Z" fill="#006599"/>
<path d="M222.339 47.1919V37.1557H225.567V38.6749H225.68C225.788 38.3854 225.938 38.1131 226.124 37.8668C226.34 37.5897 226.616 37.3658 226.931 37.2123C227.37 37.018 227.848 36.9268 228.328 36.9456C228.635 36.9485 228.941 36.9864 229.24 37.0588V40.291C228.911 40.2181 228.575 40.1802 228.239 40.1779C227.875 40.1488 227.508 40.1979 227.165 40.3219C226.821 40.4459 226.507 40.642 226.245 40.8971C225.748 41.5746 225.515 42.4111 225.592 43.2486V47.2081L222.339 47.1919Z" fill="#006599"/>
<path d="M237.117 47.3455C236.56 47.3692 236.007 47.2583 235.502 47.0222C235.158 46.8594 234.844 46.6379 234.574 46.3677C234.45 46.2428 234.337 46.1076 234.235 45.9637H234.082V47.1596H230.854V32.8003H234.082V38.3517H234.227C234.329 38.203 234.442 38.0625 234.566 37.9315C234.832 37.6574 235.147 37.4354 235.494 37.277C236 37.0469 236.553 36.939 237.108 36.9618C237.779 36.9446 238.442 37.0975 239.037 37.4062C239.574 37.6971 240.037 38.106 240.393 38.6022C240.755 39.1101 241.028 39.6757 241.2 40.2749C241.566 41.5116 241.566 42.828 241.2 44.0647C241.028 44.6639 240.755 45.2295 240.393 45.7374C240.047 46.2328 239.595 46.6443 239.07 46.9414C238.464 47.2403 237.791 47.3793 237.117 47.3455ZM236.116 44.7516C236.539 44.7649 236.954 44.6275 237.286 44.3637C237.603 44.1034 237.846 43.7631 237.988 43.3779C238.291 42.5787 238.291 41.6963 237.988 40.8971C237.846 40.5118 237.603 40.1715 237.286 39.9113C236.946 39.6587 236.535 39.5223 236.112 39.5223C235.689 39.5223 235.277 39.6587 234.937 39.9113C234.62 40.1715 234.378 40.5118 234.235 40.8971C233.933 41.6963 233.933 42.5787 234.235 43.3779C234.378 43.7631 234.62 44.1034 234.937 44.3637C235.263 44.6427 235.679 44.7947 236.108 44.792L236.116 44.7516Z" fill="#006599"/>
<path d="M243.864 50.8929C243.478 50.8917 243.092 50.8674 242.709 50.8202V48.2343C243.038 48.2343 243.328 48.2343 243.581 48.2343C244.049 48.2463 244.516 48.1779 244.961 48.0323C245.356 47.8741 245.688 47.5901 245.905 47.2243L242.298 37.1557H245.526L247.649 43.6203L249.715 37.1557H252.943L249.465 46.6667C249.179 47.507 248.774 48.3017 248.262 49.0262C247.819 49.6358 247.223 50.1179 246.535 50.4242C245.688 50.768 244.777 50.9278 243.864 50.8929Z" fill="#006599"/>
<path d="M99.9801 58.7958V50.7151H97.1231V49.6242H104.056V50.6909H101.199V58.7715L99.9801 58.7958Z" fill="#006599"/>
<path d="M107.341 58.9251C106.859 58.9378 106.381 58.8382 105.944 58.6342C105.562 58.4452 105.23 58.1683 104.976 57.8261C104.724 57.4962 104.533 57.1241 104.411 56.7271C104.287 56.3268 104.224 55.9099 104.225 55.4908C104.225 55.0749 104.285 54.6612 104.403 54.2625C104.519 53.8624 104.708 53.4871 104.96 53.1555C105.211 52.8162 105.537 52.5397 105.912 52.3474C106.338 52.1446 106.805 52.0449 107.276 52.0565C107.797 52.0473 108.311 52.1815 108.761 52.4444C109.205 52.7156 109.558 53.112 109.778 53.5837C110.045 54.1801 110.172 54.8296 110.149 55.4827V55.8302H105.412C105.432 56.1865 105.522 56.5354 105.678 56.8564C105.825 57.1589 106.051 57.4158 106.332 57.5998C106.605 57.7617 106.913 57.8563 107.23 57.876C107.547 57.8957 107.864 57.8398 108.156 57.713C108.346 57.618 108.516 57.4862 108.656 57.3251C108.792 57.157 108.901 56.9689 108.979 56.7675H110.085C110.015 57.024 109.92 57.273 109.802 57.5109C109.677 57.7402 109.52 57.9498 109.334 58.1331C109.101 58.3607 108.827 58.5417 108.527 58.6665C108.154 58.8344 107.75 58.9225 107.341 58.9251ZM105.436 54.9574H109.011C109.011 54.5895 108.917 54.2277 108.737 53.907C108.585 53.6538 108.368 53.447 108.107 53.309C107.858 53.178 107.581 53.1087 107.3 53.107C107.065 53.0985 106.83 53.1386 106.611 53.2248C106.391 53.311 106.192 53.4414 106.025 53.608C105.677 53.9747 105.468 54.4524 105.436 54.9574Z" fill="#006599"/>
<path d="M114.701 58.9251C114.219 58.9378 113.741 58.8382 113.305 58.6342C112.923 58.4452 112.591 58.1683 112.336 57.8261C112.084 57.4962 111.893 57.1241 111.771 56.7271C111.647 56.3268 111.585 55.9099 111.586 55.4908C111.585 55.0749 111.645 54.6612 111.763 54.2625C111.879 53.8624 112.068 53.4871 112.32 53.1555C112.571 52.8162 112.897 52.5397 113.272 52.3474C113.698 52.1446 114.165 52.0449 114.636 52.0565C115.158 52.0473 115.671 52.1815 116.121 52.4444C116.565 52.7156 116.919 53.112 117.138 53.5837C117.405 54.1801 117.532 54.8296 117.51 55.4827V55.8302H112.772C112.792 56.1865 112.883 56.5354 113.038 56.8564C113.185 57.1589 113.411 57.4158 113.692 57.5998C113.966 57.7617 114.273 57.8563 114.591 57.876C114.908 57.8957 115.225 57.8398 115.516 57.713C115.707 57.618 115.877 57.4862 116.016 57.3251C116.152 57.157 116.261 56.9689 116.339 56.7675H117.445C117.375 57.024 117.281 57.273 117.162 57.5109C117.038 57.7402 116.88 57.9498 116.694 58.1331C116.462 58.3607 116.188 58.5417 115.887 58.6665C115.514 58.8344 115.11 58.9225 114.701 58.9251ZM112.796 54.9574H116.396C116.396 54.5895 116.301 54.2277 116.121 53.907C115.97 53.6538 115.752 53.447 115.492 53.309C115.243 53.178 114.966 53.1087 114.685 53.107C114.449 53.0985 114.215 53.1386 113.995 53.2248C113.776 53.311 113.577 53.4414 113.41 53.608C113.049 53.9699 112.829 54.4481 112.788 54.9574H112.796Z" fill="#006599"/>
<path d="M119.132 58.7958V52.1939H120.31V53.1474H120.383C120.471 53.004 120.568 52.8663 120.673 52.7353C120.835 52.5397 121.036 52.3801 121.262 52.2666C121.564 52.1208 121.896 52.0514 122.231 52.0646C122.663 52.0525 123.09 52.1677 123.458 52.3959C123.806 52.6083 124.087 52.9169 124.265 53.2847C124.447 53.6768 124.538 54.105 124.531 54.5373V58.7634H123.353V54.6181C123.369 54.2221 123.24 53.8339 122.99 53.5272C122.858 53.379 122.694 53.2627 122.511 53.1871C122.328 53.1115 122.13 53.0786 121.932 53.0908C121.608 53.0745 121.289 53.1716 121.028 53.3656C120.791 53.5546 120.612 53.8067 120.512 54.0928C120.398 54.4006 120.341 54.7263 120.342 55.0544V58.7634L119.132 58.7958Z" fill="#006599"/>
<path d="M128.623 58.9251C128.199 58.9392 127.776 58.8678 127.38 58.715C127.075 58.6021 126.8 58.4226 126.573 58.1897C126.4 58.0039 126.258 57.791 126.153 57.5594C126.055 57.3233 125.985 57.0765 125.943 56.8241H127.13C127.175 57.0183 127.251 57.2039 127.356 57.3736C127.47 57.5373 127.622 57.6705 127.8 57.7614C128.05 57.8843 128.328 57.9426 128.607 57.9311C128.932 57.9502 129.254 57.8496 129.511 57.6483C129.613 57.5656 129.695 57.4608 129.75 57.3419C129.806 57.2229 129.835 57.0929 129.833 56.9615C129.839 56.853 129.819 56.7447 129.776 56.6452C129.732 56.5456 129.666 56.4575 129.583 56.3877C129.369 56.2262 129.12 56.1156 128.857 56.0645L127.969 55.8544C127.649 55.7766 127.338 55.6655 127.041 55.5231C126.763 55.3935 126.521 55.1962 126.339 54.9494C126.154 54.6819 126.06 54.3615 126.072 54.0363C126.066 53.7732 126.119 53.5122 126.228 53.2728C126.337 53.0335 126.499 52.822 126.702 52.6545C127.157 52.2843 127.73 52.092 128.316 52.1131C128.702 52.1008 129.086 52.1668 129.446 52.307C129.713 52.4154 129.955 52.5777 130.156 52.7838C130.318 52.9523 130.452 53.146 130.552 53.3575C130.645 53.5723 130.713 53.7975 130.753 54.0282H129.616C129.578 53.8608 129.509 53.7019 129.414 53.5595C129.31 53.4247 129.178 53.3143 129.026 53.2363C128.811 53.1308 128.572 53.0808 128.332 53.0908C128.019 53.0644 127.709 53.1632 127.469 53.3656C127.384 53.4404 127.315 53.5323 127.268 53.6353C127.221 53.7383 127.196 53.8502 127.194 53.9635C127.192 54.0612 127.214 54.1578 127.257 54.2452C127.301 54.3325 127.365 54.4078 127.444 54.4645C127.643 54.6057 127.868 54.7047 128.106 54.7554L129.01 54.9655C129.52 55.0732 129.998 55.2972 130.406 55.6201C130.589 55.7803 130.733 55.9798 130.828 56.2037C130.923 56.4276 130.967 56.67 130.955 56.913C130.958 57.2695 130.86 57.6196 130.673 57.9231C130.477 58.2383 130.198 58.4929 129.866 58.6584C129.477 58.8404 129.052 58.9316 128.623 58.9251Z" fill="#006599"/>
<path d="M135.483 58.7958V49.6242H141.528V50.6909H136.685V53.713H140.947V54.7797H136.685V58.82L135.483 58.7958Z" fill="#006599"/>
<path d="M145.45 52.105C145.808 52.0945 146.163 52.1634 146.491 52.307C146.743 52.4217 146.973 52.5804 147.169 52.7757C147.321 52.9259 147.454 53.0942 147.565 53.2767H147.637V52.1939H148.816V58.7634H147.637V57.7534H147.565C147.453 57.9379 147.32 58.1087 147.169 58.2624C146.975 58.4604 146.745 58.6195 146.491 58.7311C146.162 58.8692 145.807 58.9353 145.45 58.9251C145 58.9354 144.554 58.8355 144.151 58.6342C143.784 58.4386 143.467 58.1623 143.223 57.8261C142.973 57.4957 142.785 57.1236 142.666 56.7271C142.418 55.9188 142.418 55.0547 142.666 54.2464C142.785 53.8499 142.973 53.4777 143.223 53.1474C143.484 52.8087 143.823 52.5375 144.21 52.3562C144.598 52.1749 145.023 52.0888 145.45 52.105ZM145.652 53.107C145.253 53.0935 144.862 53.2192 144.546 53.4625C144.25 53.6972 144.021 54.0068 143.884 54.3595C143.594 55.0997 143.594 55.9223 143.884 56.6625C144.02 57.0182 144.248 57.3309 144.546 57.5675C144.862 57.8109 145.253 57.9365 145.652 57.9231C146.048 57.9367 146.436 57.8109 146.749 57.5675C147.043 57.3288 147.269 57.0166 147.403 56.6625C147.693 55.9221 147.693 55.0998 147.403 54.3595C147.268 54.0083 147.042 53.699 146.749 53.4625C146.428 53.2118 146.027 53.0856 145.62 53.107H145.652Z" fill="#006599"/>
<path d="M153.061 58.9251C152.785 58.946 152.508 58.9109 152.245 58.8221C151.983 58.7332 151.742 58.5923 151.535 58.4079C151.356 58.2112 151.217 57.9804 151.129 57.7291C151.04 57.4779 151.003 57.2113 151.019 56.9453V53.1959H149.841V52.1939H151.019V50.5777H152.197V52.1939H153.811V53.1635H152.197V56.9049C152.185 57.039 152.204 57.1739 152.252 57.2998C152.299 57.4257 152.374 57.5393 152.472 57.6322C152.705 57.802 152.991 57.8823 153.279 57.8584C153.549 57.8538 153.819 57.8295 154.086 57.7857V58.82C153.748 58.8854 153.405 58.9206 153.061 58.9251Z" fill="#006599"/>
<path d="M155.7 58.7958V49.3818H156.878V53.1878H156.951C157.039 53.0444 157.136 52.9067 157.241 52.7757C157.403 52.5801 157.604 52.4205 157.83 52.307C158.132 52.1612 158.464 52.0918 158.799 52.105C159.231 52.0929 159.658 52.2081 160.026 52.4363C160.374 52.6487 160.655 52.9573 160.833 53.3252C161.015 53.7172 161.106 54.1454 161.099 54.5777V58.8039H159.921V54.6181C159.937 54.2222 159.808 53.8339 159.558 53.5272C159.426 53.379 159.262 53.2627 159.079 53.1871C158.896 53.1115 158.698 53.0786 158.5 53.0908C158.176 53.0745 157.857 53.1716 157.596 53.3656C157.36 53.5546 157.181 53.8067 157.08 54.0928C156.967 54.4007 156.909 54.7263 156.91 55.0544V58.7634L155.7 58.7958Z" fill="#006599"/>
<path d="M165.772 58.9251C165.29 58.9378 164.812 58.8382 164.376 58.6342C163.994 58.4452 163.662 58.1683 163.407 57.8261C163.155 57.4962 162.964 57.1241 162.842 56.7271C162.718 56.3268 162.656 55.9099 162.657 55.4908C162.656 55.0749 162.716 54.6612 162.834 54.2625C162.95 53.8624 163.139 53.4871 163.391 53.1555C163.642 52.8162 163.968 52.5397 164.344 52.3474C164.769 52.1446 165.236 52.0449 165.707 52.0565C166.229 52.0473 166.742 52.1815 167.192 52.4444C167.636 52.7156 167.99 53.112 168.209 53.5837C168.476 54.1801 168.603 54.8296 168.581 55.4827V55.8302H163.843C163.863 56.1865 163.954 56.5354 164.109 56.8564C164.256 57.1589 164.482 57.4158 164.763 57.5998C165.037 57.7617 165.345 57.8563 165.662 57.876C165.979 57.8957 166.296 57.8398 166.587 57.713C166.778 57.618 166.948 57.4862 167.088 57.3251C167.223 57.157 167.332 56.9689 167.41 56.7675H168.516C168.447 57.024 168.352 57.273 168.234 57.5109C168.109 57.7402 167.951 57.9498 167.765 58.1331C167.533 58.3607 167.259 58.5417 166.958 58.6665C166.585 58.8344 166.181 58.9225 165.772 58.9251ZM163.867 54.9574H167.443C167.443 54.5895 167.348 54.2277 167.168 53.907C167.017 53.6538 166.799 53.447 166.539 53.309C166.29 53.178 166.013 53.1087 165.732 53.107C165.496 53.0985 165.261 53.1386 165.042 53.2248C164.823 53.311 164.623 53.4414 164.456 53.608C164.108 53.9747 163.9 54.4524 163.867 54.9574Z" fill="#006599"/>
<path d="M170.211 58.7958V52.1939H171.389V53.0019H171.438C171.593 52.7398 171.805 52.5161 172.059 52.3474C172.406 52.1379 172.809 52.0392 173.213 52.0646C173.399 52.0553 173.585 52.0553 173.77 52.0646V53.1959C173.512 53.1959 173.313 53.1959 173.173 53.1959C172.931 53.1812 172.689 53.2175 172.463 53.3024C172.236 53.3873 172.03 53.519 171.857 53.6888C171.5 54.1472 171.332 54.726 171.389 55.3049V58.7877L170.211 58.7958Z" fill="#006599"/>
<path d="M21.6352 34.4178C21.6352 34.532 21.7127 34.532 21.7485 34.4178C25.0607 24.2115 28.6613 13.3299 32.5501 1.77318C32.6635 1.43057 32.8126 1.24423 33.0392 1.20216C35.7763 0.52418 38.5735 0.121489 41.3895 0C41.5803 0 41.6519 0.0781403 41.6519 0.264475V86.1287C41.6491 86.1676 41.6325 86.2042 41.6052 86.2318C41.5778 86.2594 41.5414 86.2762 41.5028 86.2789C37.4837 86.1366 33.506 85.4098 29.6931 84.1211C28.2617 83.6282 27.0211 83.1714 25.9654 82.7145C16.4287 78.6616 8.69936 71.2229 4.24277 61.809C1.2904 55.6806 -0.159799 48.9278 0.0139629 42.1176C0.287032 33.1486 3.33131 24.489 8.72208 17.3472C10.2032 15.3587 11.882 13.528 13.7322 11.8833C13.7605 11.8645 13.7937 11.8544 13.8277 11.8544C13.8616 11.8544 13.8948 11.8645 13.9231 11.8833V11.9194L21.5576 34.4539L21.6352 34.4178ZM25.023 59.1943C25.023 59.2304 24.9454 59.2724 24.9096 59.2724H18.7364C18.6084 59.2831 18.4807 59.2471 18.3768 59.171C18.2728 59.0949 18.1994 58.9837 18.1698 58.8577L10.4935 36.203C10.4577 36.0527 10.3802 36.0527 10.3444 36.203C9.151 41.1027 9.16329 46.222 10.3802 51.1158C11.7044 56.8436 14.4644 62.1334 18.3965 66.4794C21.9992 70.3784 26.5089 73.3118 31.5183 75.0147C31.5958 75.0147 31.6316 75.0147 31.6316 74.9366V40.7532C31.6316 40.3745 31.6316 40.3384 31.4825 40.7532C29.9794 44.8525 28.3571 49.5951 26.5499 54.9447C26.025 56.5015 25.5359 57.902 25.0468 59.1522L25.023 59.1943Z" fill="#006599"/>
<path d="M57.8612 73.7101C61.0001 72.6361 63.9341 71.0307 66.5368 68.963H66.6862L73.8562 76.0266V76.1048C66.4567 82.216 57.3087 85.7814 47.7515 86.2789C47.6739 86.2789 47.6022 86.2428 47.6022 86.1646V0.0782166C47.6201 0 47.6201 0 47.6798 0C48.7533 0.00169983 49.8254 0.0780928 50.8884 0.228633C59.3563 1.26789 67.3482 4.73928 73.91 10.2283V10.3065L66.7997 17.4483C66.7639 17.4844 66.6504 17.5265 66.6085 17.4483C64.0417 15.271 61.0673 13.6343 57.8612 12.635H57.8253V37.5981C57.8234 37.6136 57.825 37.6293 57.83 37.6441C57.835 37.6589 57.8433 37.6723 57.8543 37.6833C57.8652 37.6943 57.8786 37.7027 57.8932 37.7077C57.9079 37.7128 57.9235 37.7144 57.9389 37.7124H78.6421C78.7198 37.7124 78.7557 37.7124 78.7557 37.5981C78.7667 37.2396 78.7285 36.8812 78.6421 36.5332C77.7914 31.8201 75.81 27.3876 72.8703 23.6214C72.8345 23.5432 72.8345 23.5071 72.8703 23.471L79.9208 16.6722H80.0702C84.3739 21.9879 87.2794 28.3091 88.5188 35.0531C89.4992 40.3745 89.4992 45.8322 88.5188 51.1537C87.2623 57.9511 84.3328 64.3226 79.9985 69.685C79.9626 69.7632 79.8491 69.7632 79.7714 69.685L72.9062 62.9223C72.8285 62.844 72.8285 62.7718 72.9062 62.7297C76.1204 58.6023 78.183 53.6861 78.8811 48.4883C78.8811 48.4101 78.8453 48.374 78.7676 48.3379H57.9329C57.8552 48.3379 57.8552 48.3379 57.8552 48.4161V73.6861C57.8552 73.7222 57.8552 73.7643 57.9329 73.7222L57.8612 73.7101Z" fill="#00C1D6"/>
</svg>
