<svg width="199" height="28" viewBox="0 0 199 28" fill="none" xmlns="http://www.w3.org/2000/svg">
<path d="M89.977 0.8246C86.276 2.07492 82.2141 4.38319 76.3044 8.59579C68.4418 14.1982 66.8041 14.9724 63.0897 14.8329C59.4991 14.6935 58.5187 14.0731 54.2978 9.25942C48.8164 3.00784 46.9444 1.92584 42.5026 2.45482C39.5047 2.81549 38.4515 3.38294 32.0488 8.11009C21.9129 15.5976 15.2678 16.9969 5.36352 13.7269C0.259182 12.0438 -0.0155626 12.0245 0.000598501 13.3758C0.00867942 14.1164 0.49083 14.9051 1.98038 16.6122C6.93119 22.2771 11.8955 24.5181 18.9473 24.2824C23.4563 24.1286 26.4139 23.311 31.995 20.6661C35.0764 19.209 36.1619 18.9109 39.599 18.5887C44.3801 18.1367 45.2285 18.4444 48.5847 21.8203C49.848 23.0898 51.4265 24.5085 52.1376 25.023C55.1517 27.1774 61.0668 27.6439 66.586 26.1531C70.3839 25.1288 72.0243 24.4315 78.6155 21.0509C85.0343 17.7568 87.8707 16.6892 90.408 16.593C92.3447 16.5209 93.1043 17.0162 96.4093 20.5074C98.3487 22.5512 100.062 23.6188 103.34 24.8307C109.093 26.961 113.635 26.8408 119.989 24.4027C121.403 23.8641 123.073 23.4024 123.728 23.3784C124.751 23.3447 124.991 23.513 125.476 24.6287C125.818 25.4125 126.416 26.081 126.992 26.3262C129.804 27.5236 134.928 26.985 139.614 24.999C141.753 24.0949 145.314 21.8684 150.505 18.1799C152.385 16.8479 153.489 16.3526 155.105 16.1025L157.233 15.7803L160.005 18.228C163.571 21.3779 166.084 22.2675 170.919 22.0896C176.624 21.878 178.709 21.0268 187.444 15.3379C191.652 12.6016 194.865 10.856 197.85 9.69703C198.545 9.43254 198.58 7.89369 197.898 7.53783C197.467 7.31181 191.485 8.94203 183.832 11.3705C179.436 12.7651 174.819 13.3229 172.63 12.7266C171.312 12.3708 169.823 11.3609 166.599 8.64388C161.489 4.3351 159.393 3.31561 155.819 3.40217C153.422 3.45988 153.155 3.57048 148.748 6.34522C146.224 7.93697 143.178 9.6249 141.96 10.1106C139.803 10.9762 139.746 10.9762 139.464 10.1587C138.736 8.04757 137.923 6.83092 136.958 6.39331C134.96 5.49886 132.867 6.29713 126.634 10.3366C119.606 14.8906 117.357 15.9919 114.087 16.4632C111.426 16.8479 109.953 16.5305 107.69 15.0734C105.667 13.775 105.048 12.6689 104.04 8.56694C102.704 3.14249 101.503 1.31511 98.6207 0.324474C96.8861 -0.27183 92.4578 -0.0121501 89.977 0.8246Z" fill="#FFB406"/>
</svg>
